[Header]
FileType HTR
DataType HTRS
FileVersion 1
NumSegments 81
NumFrames 2
DataFrameRate 30
EulerRotationOrder ZYX
CalibrationUnits mm
RotationUnits Degrees
GlobalAxisofGravity Y
BoneLengthAxis Y
ScaleFactor 1.0
[SegmentNames&Hierarchy]
Hips	GLOBAL
LeftUpLeg	Hips
LeftLeg	LeftUpLeg
LeftFoot	LeftLeg
LeftToeBase	LeftFoot
LeftToeEnd	LeftToeBase
LeftLegRoll	LeftLeg
LeftUpLegRoll	LeftUpLeg
Spine	Hips
Spine1	Spine
Spine2	Spine1
LeftShoulder	Spine2
LeftArm	LeftShoulder
LeftForeArm	LeftArm
LeftForeArmRoll	LeftForeArm
LeftHand	LeftForeArm
LeftHandThumb1	LeftHand
LeftHandThumb2	LeftHandThumb1
LeftHandThumb3	LeftHandThumb2
LeftHandThumb4	LeftHandThumb3
LeftHandIndex1	LeftHand
LeftHandIndex2	LeftHandIndex1
LeftHandIndex3	LeftHandIndex2
LeftHandIndex4	LeftHandIndex3
LeftHandMiddle1	LeftHand
LeftHandMiddle2	LeftHandMiddle1
LeftHandMiddle3	LeftHandMiddle2
LeftHandMiddle4	LeftHandMiddle3
LeftHandRing1	LeftHand
LeftHandRing2	LeftHandRing1
LeftHandRing3	LeftHandRing2
LeftHandRing4	LeftHandRing3
LeftHandPinky1	LeftHand
LeftHandPinky2	LeftHandPinky1
LeftHandPinky3	LeftHandPinky2
LeftHandPinky4	LeftHandPinky3
LH_WP	LeftHand
LeftArmRoll	LeftArm
RightShoulder	Spine2
RightArm	RightShoulder
RightForeArm	RightArm
RightHand	RightForeArm
RightHandThumb1	RightHand
RightHandThumb2	RightHandThumb1
RightHandThumb3	RightHandThumb2
RightHandThumb4	RightHandThumb3
RightHandIndex1	RightHand
RightHandIndex2	RightHandIndex1
RightHandIndex3	RightHandIndex2
RightHandIndex4	RightHandIndex3
RightHandMiddle1	RightHand
RightHandMiddle2	RightHandMiddle1
RightHandMiddle3	RightHandMiddle2
RightHandMiddle4	RightHandMiddle3
RightHandRing1	RightHand
RightHandRing2	RightHandRing1
RightHandRing3	RightHandRing2
RightHandRing4	RightHandRing3
RightHandPinky1	RightHand
RightHandPinky2	RightHandPinky1
RightHandPinky3	RightHandPinky2
RightHandPinky4	RightHandPinky3
RH_WP	RightHand
RightForeArmRoll	RightForeArm
RightArmRoll	RightArm
Neck	Spine2
Neck1	Neck
Head	Neck1
Jaw	Head
L_Eye	Head
R_Eye_Socket	Head
L_Eye_Socket	Head
R_Eye	Head
BK_WEP1	Spine2
RightUpLeg	Hips
RightLeg	RightUpLeg
RightFoot	RightLeg
RightToeBase	RightFoot
RightToeEnd	RightToeBase
RightLegRoll	RightLeg
RightUpLegRoll	RightUpLeg
[BasePosition]
Hips	0	0	0	-90	-0	90	1
LeftUpLeg	0	0	0	0.1245552539	2.943081661	177.8888274	1
LeftLeg	0	0	0	-1.553056268e-018	-0.4645708947	-3.190265207	1
LeftFoot	0	0	0	-3.427050049	1.138743235	66.87228657	1
LeftToeBase	0	0	0	-0.1150285401	1.405135968	23.664964	1
LeftToeEnd	0	0	0	0	86.14893154	4.67902715	1
LeftLegRoll	0	0	0	0	-0.0003937979005	-0.0001763048027	1
LeftUpLegRoll	0	0	0	-7.231744079e-028	1.685187608e-005	2.666244888e-005	1
Spine	0	0	0	0	0	-3.518269458	1
Spine1	0	0	0	0	-0	7.885175398	1
Spine2	0	0	0	0	0	-0.09285174208	1
LeftShoulder	0	0	0	160.7860865	59.06322903	63.61338722	1
LeftArm	0	0	0	2.904619295	-26.91541272	-17.55355673	1
LeftForeArm	0	0	0	-90.22254753	-4.753527924	8.383736267	1
LeftForeArmRoll	0	0	0	0	0	0	1
LeftHand	0	0	0	90	-0	0	1
LeftHandThumb1	0	0	0	108.0365432	-19.14265923	-11.8633769	1
LeftHandThumb2	0	0	0	-15.63070336	0.2480216413	-4.679087203	1
LeftHandThumb3	0	0	0	-0.5621291509	1.199440794	-4.464397336	1
LeftHandThumb4	0	0	0	0	0	0	1
LeftHandIndex1	0	0	0	-0.1287480184	2.273223042	-5.916767355	1
LeftHandIndex2	0	0	0	0	0	0	1
LeftHandIndex3	0	0	0	0	0	0	1
LeftHandIndex4	0	0	0	0.06487671692	1.045318787	6.79153565	1
LeftHandMiddle1	0	0	0	-0.1873173809	2.298574433	-7.334490242	1
LeftHandMiddle2	0	0	0	0	0	0	1
LeftHandMiddle3	0	0	0	0	0	0	1
LeftHandMiddle4	0	0	0	0.1011317606	1.031425995	10.25668623	1
LeftHandRing1	0	0	0	-0.2038904391	2.187828672	-7.999827968	1
LeftHandRing2	0	0	0	0	0	0	1
LeftHandRing3	0	0	0	0	0	0	1
LeftHandRing4	0	0	0	0.1270826821	1.220105684	11.26838389	1
LeftHandPinky1	0	0	0	-0.1150589234	1.798482907	-6.335472682	1
LeftHandPinky2	0	0	0	0	0	0	1
LeftHandPinky3	0	0	0	0	0	0	1
LeftHandPinky4	0	0	0	0.09523892401	1.784551098	6.714729621	1
LH_WP	0	0	0	4.792186366e-012	2.776477095	-2.674328027	1
LeftArmRoll	0	0	0	0	2.176196996e-005	0	1
RightShoulder	0	0	0	160.7860865	59.06322903	-116.3866128	1
RightArm	0	0	0	2.904619295	-26.91541272	-17.55355673	1
RightForeArm	0	0	0	-90.22254753	-4.753527924	8.383736267	1
RightHand	0	0	0	90	-0	0	1
RightHandThumb1	0	0	0	108.0365432	-19.14265923	-11.8633769	1
RightHandThumb2	0	0	0	-15.63070336	0.2480216413	-4.679087203	1
RightHandThumb3	0	0	0	-0.5621291509	1.199440794	-4.464397336	1
RightHandThumb4	0	0	0	1.20741827e-006	-0	0	1
RightHandIndex1	0	0	0	-0.1287480183	2.273223042	-5.916767355	1
RightHandIndex2	0	0	0	0	0	0	1
RightHandIndex3	0	0	0	0	0	0	1
RightHandIndex4	0	0	0	0.06487671641	1.045318787	6.79153565	1
RightHandMiddle1	0	0	0	-0.187317381	2.298574433	-7.334490242	1
RightHandMiddle2	0	0	0	0	0	0	1
RightHandMiddle3	0	0	0	0	0	0	1
RightHandMiddle4	0	0	0	0.1011317605	1.031425995	10.25668623	1
RightHandRing1	0	0	0	-0.2038904391	2.187828672	-7.999827968	1
RightHandRing2	0	0	0	0	0	0	1
RightHandRing3	0	0	0	0	0	0	1
RightHandRing4	0	0	0	0.1270826818	1.220105684	11.26838389	1
RightHandPinky1	0	0	0	-0.1150589234	1.798482907	-6.335472682	1
RightHandPinky2	0	0	0	0	0	0	1
RightHandPinky3	0	0	0	0	0	0	1
RightHandPinky4	0	0	0	0.09523892401	1.784551098	6.714729621	1
RH_WP	0	0	0	4.903613047e-012	2.776477095	-2.674328027	1
RightForeArmRoll	0	0	0	0	0	0	1
RightArmRoll	0	0	0	0	2.17619649e-005	0	1
Neck	0	0	0	-0.5911792768	-0.1801087749	-21.21735117	1
Neck1	0	0	0	0.6101271651	0.09836090716	7.78649821	1
Head	0	0	0	0	-0	9.996624533	1
Jaw	0	0	0	-0.06946325017	0.08775954594	-129.2006421	1
L_Eye	0	0	0	90.83837297	89.99999895	0	1
R_Eye_Socket	0	0	0	90.83837297	89.99999895	0	1
L_Eye_Socket	0	0	0	90.83837262	89.99999895	0	1
R_Eye	0	0	0	90.83837262	89.99999895	0	1
BK_WEP1	0	0	0	94.2740542	90	0	1
RightUpLeg	0	0	0	0.1245552539	2.943081661	-2.111172621	1
RightLeg	0	0	0	1.770668338e-011	-0.4645708947	-3.190265207	1
RightFoot	0	0	0	-3.427050049	1.138743235	66.87228657	1
RightToeBase	0	0	0	-0.1150285401	1.405135968	23.664964	1
RightToeEnd	0	0	0	-4.55797616e-013	86.14893154	4.67902715	1
RightLegRoll	0	0	0	0.0001763058084	-5.425123434e-010	1.211761319e-009	1
RightUpLegRoll	0	0	0	2.663171688e-005	1.239300521e-011	-7.832936944e-012	1
[Hips]
9	-10.33913136	950.9301758	388.4936829	11.45101643	4.561543941	-0.672827065	1.0
10	-13.66799164	951.1920776	435.521698	11.369524	6.80314064	0.1526728272	1.0
[LeftUpLeg]
9	-47.72183228	-9.041708946	-88.56555939	1.940109611	4.940148354	-12.39568901	1.0
10	-47.72188568	-9.041708946	-88.56576538	-4.669886112	8.75976944	-11.42391491	1.0
[LeftLeg]
9	428.6574097	7.88836478e-005	-0.0001282976882	5.777060509	-3.273967505	-17.5006218	1.0
10	428.6572876	7.403055497e-005	-0.0001282976882	9.390878677	-1.568518162	-25.33171082	1.0
[LeftFoot]
9	444.4227905	-0.02556685731	0.7290584445	8.642354012	-1.024300933	18.03144646	1.0
10	444.4208374	-0.02617278323	1.170190692	8.73717308	-3.006797314	14.81108475	1.0
[LeftToeBase]
9	155.278717	-3.741753244e-005	-3.431266668e-005	-1.358568788	0.04244730249	9.069644928	1.0
10	155.2784882	-3.741753244e-005	-3.431266668e-005	-0.5134791136	-0.1020353287	13.43944168	1.0
[LeftToeEnd]
9	87.1754837	4.440892099e-015	-1.243449788e-013	0	0	0	1.0
10	87.1754837	4.440892099e-015	-1.243449788e-013	0	0	0	1.0
[LeftLegRoll]
9	198.5739746	0.0001020313794	-7.768137039e-006	3.45977807	-0.1696847528	-0.005934984423	1.0
10	198.5739746	-5.141578185e-006	-7.768137039e-006	5.568935394	-0.2724875212	-0.006089066621	1.0
[LeftUpLegRoll]
9	166.7201843	-7.766022463e-005	-1.329787847e-005	-8.562968105e-006	2.627955155e-006	4.093984103e-007	1.0
10	166.7200012	-2.049461182e-005	-1.329787847e-005	-8.562968105e-006	2.627955155e-006	4.093984103e-007	1.0
[Spine]
9	66.67909241	-8.790328979	-7.246826044e-006	-2.169421196	-2.18078351	-2.396251678	1.0
10	66.67909241	-8.790328979	-7.246826044e-006	-2.134126186	-4.707012653	-3.159155369	1.0
[Spine1]
9	120.7897644	-2.382928869e-006	-1.243954466e-005	-5.918615341	-0.7185426354	-0.6569104195	1.0
10	120.7897644	-2.382928869e-006	-1.243954466e-005	-5.803339481	-1.004281521	-0.4408020675	1.0
[Spine2]
9	97.34912872	-1.810785875e-006	-2.197143658e-006	-5.89311409	-0.8365460634	-0.6509918571	1.0
10	97.34912109	-1.810785875e-006	-2.197143658e-006	-5.770203114	-1.159959555	-0.3760429025	1.0
[LeftShoulder]
9	193.5428467	-57.97096634	-41.53356552	7.701523781	3.676697493	-15.74761677	1.0
10	193.5429077	-57.97096634	-41.53356552	8.223554611	4.342392921	-16.7093277	1.0
[LeftArm]
9	156.8793335	7.011984417e-005	7.880633348e-005	27.82481384	-13.22422791	-57.92978287	1.0
10	156.8791351	7.011984417e-005	7.880633348e-005	29.56496239	-11.56973839	-56.77841187	1.0
[LeftForeArm]
9	274.6984253	0.003072434338	1.124555638e-005	-0.7254750729	-3.475004196	-24.34990883	1.0
10	274.6984558	0.003063308541	2.92239838e-005	-0.7138863206	-3.780954361	-23.79809952	1.0
[LeftForeArmRoll]
9	107.0116882	8.881784197e-014	2.842170943e-013	4.647522926	0	0	1.0
10	107.0116882	8.881784197e-014	2.842170943e-013	4.594575882	0	0	1.0
[LeftHand]
9	266.6985779	7.39565985e-006	2.530082202e-005	5.809403896	-1.945293188	6.036080837	1.0
10	266.6985474	5.902630619e-006	7.872267815e-007	5.743220329	-1.610446095	5.55886507	1.0
[LeftHandThumb1]
9	31.59937096	-14.66599846	50.44502258	-0.01282315515	-13.85653496	-3.613639593	1.0
10	31.59937096	-14.66599846	50.44502258	-0.01276400965	-13.85661125	-3.613950968	1.0
[LeftHandThumb2]
9	53.38059235	1.498850543e-005	7.028605614e-005	-9.149994003e-005	0.3001122475	0.0006114377175	1.0
10	53.38059235	1.498850543e-005	7.028605614e-005	-9.149994003e-005	0.3000541329	0.001777439262	1.0
[LeftHandThumb3]
9	33.23007202	1.22860547e-005	-2.294297155e-005	-4.535086191e-005	-6.048290015e-005	-0.0005896877847	1.0
10	33.23007202	1.22860547e-005	-2.294297155e-005	-4.535086191e-005	-0.0001559734519	-0.00173323846	1.0
[LeftHandThumb4]
9	41.64097214	4.147438631e-006	0.0001250760542	-0.0001564055856	3.133403879e-006	2.732047506e-006	1.0
10	41.64097214	4.147438631e-006	0.0001250760542	-0.0001564055856	3.133403879e-006	2.732047506e-006	1.0
[LeftHandIndex1]
9	107.8285675	-7.018220901	35.98760223	-5.811536994e-006	-5.240920655e-005	-6.682030201	1.0
10	107.8285675	-7.018220901	35.98760223	-5.811536994e-006	-5.240920655e-005	-6.681580544	1.0
[LeftHandIndex2]
9	41.10871124	-2.352120464e-005	-2.933129144e-005	4.521650771e-005	-0.02178817801	-6.721295357	1.0
10	41.10870743	-2.598857645e-005	-2.933129144e-005	4.521650771e-005	-0.02178817801	-6.721635818	1.0
[LeftHandIndex3]
9	28.81010056	-6.147524982e-005	-6.828597634e-006	6.273760664e-005	-0.0216971077	-6.720582962	1.0
10	28.81010056	-6.147524982e-005	-6.828597634e-006	6.273760664e-005	-0.02172038332	-6.721288204	1.0
[LeftHandIndex4]
9	28.71870995	-2.630541712e-005	-8.31338366e-006	-2.364825014e-005	9.688740477e-008	4.758323655e-007	1.0
10	28.71870995	-2.630541712e-005	-8.31338366e-006	-2.364825014e-005	9.688740477e-008	4.758323655e-007	1.0
[LeftHandMiddle1]
9	108.9268494	-1.069022179	10.86118889	-0.0008354546735	-0.02306411602	-6.721336842	1.0
10	108.9268494	-1.069022179	10.86118889	-0.0008354546735	-0.02306411602	-6.721520424	1.0
[LeftHandMiddle2]
9	50.48866272	1.766570313e-005	4.843409988e-005	-0.0008171082591	-0.02305125445	-6.729137897	1.0
10	50.48866272	1.042277472e-005	4.843409988e-005	-0.0008171082591	-0.02305125445	-6.728440285	1.0
[LeftHandMiddle3]
9	33.4220047	-3.75697964e-005	-1.358096506e-005	-0.0007995794876	-0.02315948717	-6.720866203	1.0
10	33.4220047	-3.75697964e-005	-1.358096506e-005	-0.0007995794876	-0.02316562645	-6.721813679	1.0
[LeftHandMiddle4]
9	30.04672241	1.24678736e-005	-8.839362636e-006	-2.151279296e-005	3.737249017e-006	1.959143992e-005	1.0
10	30.04672241	1.24678736e-005	-8.839362636e-006	-2.151279296e-005	3.737249017e-006	1.959143992e-005	1.0
[LeftHandRing1]
9	109.0505066	-2.691722393	-12.87385559	-0.001155005419	-0.02301577479	-6.72158289	1.0
10	109.0505219	-2.691722393	-12.87385559	-0.001155005419	-0.02301577479	-6.721346855	1.0
[LeftHandRing2]
9	46.28152466	0.4492081702	-0.04896371067	-0.001298549352	-0.02504445612	-6.721609116	1.0
10	46.28152466	0.4492073059	-0.04896371067	-0.001298549352	-0.02504445612	-6.721950531	1.0
[LeftHandRing3]
9	29.52352905	-0.4492343068	0.04896384105	-0.001304716803	-0.02515631542	-6.72118187	1.0
10	29.52352905	-0.4492343068	0.04896384105	-0.001304716803	-0.02518314309	-6.72119379	1.0
[LeftHandRing4]
9	29.06703949	-8.064614667e-005	-2.592493274e-006	-2.559948916e-005	4.032513345e-007	-7.405305041e-006	1.0
10	29.06703949	-8.064614667e-005	-2.592493274e-006	-2.559948916e-005	4.032513345e-007	-7.405305041e-006	1.0
[LeftHandPinky1]
9	104.5423584	-10.7537632	-37.43114853	-0.002212065738	-0.02576850727	-6.721752644	1.0
10	104.5423584	-10.7537632	-37.43114853	-0.002212065738	-0.02576850727	-6.72148037	1.0
[LeftHandPinky2]
9	32.66357422	4.542809984e-005	2.186753045e-005	-0.002190768253	-0.02613775432	-6.736581802	1.0
10	32.66357422	4.542809984e-005	2.186753045e-005	-0.002190768253	-0.02613775432	-6.737341881	1.0
[LeftHandPinky3]
9	25.58546066	-0.0001442180801	5.615371265e-006	-0.002058417303	-0.02630362287	-6.722404957	1.0
10	25.58546066	-0.0001442180801	5.615371265e-006	-0.002058417303	-0.02624579519	-6.721837044	1.0
[LeftHandPinky4]
9	24.9887104	1.994265222e-005	9.815598787e-006	-3.115133586e-005	4.469477972e-006	-9.886784937e-006	1.0
10	24.9887104	1.994265222e-005	9.815598787e-006	-3.115133586e-005	4.469477972e-006	-9.886784937e-006	1.0
[LH_WP]
9	120	-50	-1.776356839e-014	0	0	0	1.0
10	120	-50	-1.776356839e-014	0	0	0	1.0
[LeftArmRoll]
9	132.8951569	6.396442768e-005	-6.823013973e-005	1.951125341e-006	-2.596907279e-006	8.169748071e-006	1.0
10	132.8951416	6.396442768e-005	-6.823013973e-005	1.951125341e-006	-2.596907279e-006	8.169748071e-006	1.0
[RightShoulder]
9	193.5422668	-57.97095871	41.53348923	14.60094357	-0.002784308512	-17.42290878	1.0
10	193.5421906	-57.97095871	41.53348923	14.42989826	-0.2866924107	-17.15885735	1.0
[RightArm]
9	-156.8792419	-0.001017017988	0.0001053106535	47.41912079	2.216587543	-55.35925293	1.0
10	-156.8794098	-0.001017017988	0.0001053106535	47.53754044	0.2536901534	-55.28062439	1.0
[RightForeArm]
9	-274.6986084	-0.00379892718	7.242096763e-005	0.06735940278	2.888525724	-7.956786156	1.0
10	-274.6986389	-0.003822614672	8.334410086e-005	0.09005716443	2.825619936	-7.328549385	1.0
[RightHand]
9	-266.6992798	-0.003128347686	0.0008684733184	-2.841431379	14.8450346	-7.583852768	1.0
10	-266.6990662	-0.003090069164	0.0008410341106	-2.730877399	14.93298435	-7.328857422	1.0
[RightHandThumb1]
9	-31.59878922	14.66024971	-50.44504166	-0.01184488274	-13.49949455	-2.857589483	1.0
10	-31.59878922	14.66024971	-50.44504166	-0.01181857195	-13.49951839	-2.857602596	1.0
[RightHandThumb2]
9	-53.38220978	-0.001566649647	-0.006651815027	-8.251657709e-005	-0.0001636507368	-0.0001810769172	1.0
10	-53.38220978	-0.001566649647	-0.006651815027	-8.251657709e-005	-0.0001636507368	-0.0002510381746	1.0
[RightHandThumb3]
9	-33.22898102	-0.0001522296225	0.005415679887	-6.073483382e-005	-0.0002730641281	-0.0002210114617	1.0
10	-33.22898102	-0.0001522296225	0.005415679887	-6.073483382e-005	-0.0002286394156	-4.607039591e-005	1.0
[RightHandThumb4]
9	-41.64128876	2.50704652e-005	-0.00196983316	-0.0001000055563	-2.130099801e-006	-4.877970696e-006	1.0
10	-41.64128876	2.50704652e-005	-0.00196983316	-0.0001000055563	-2.130099801e-006	-4.877970696e-006	1.0
[RightHandIndex1]
9	-107.8280258	7.018723965	-35.9876709	4.204014112e-005	-0.02174405195	-6.720985413	1.0
10	-107.8280258	7.018723965	-35.9876709	4.204014112e-005	-0.02174405195	-6.721460342	1.0
[RightHandIndex2]
9	-41.10911942	-0.003346124431	-1.78862847e-005	3.124775685e-005	-0.02161840536	-6.723586082	1.0
10	-41.10911942	-0.003346124431	-1.78862847e-005	3.124775685e-005	-0.02166762762	-6.722144127	1.0
[RightHandIndex3]
9	-28.81018066	0.001765439403	2.68525082e-006	1.786792018e-005	-0.02163977176	-6.718841553	1.0
10	-28.81018066	0.001765439403	2.68525082e-006	1.786792018e-005	-0.02136901952	-6.720156193	1.0
[RightHandIndex4]
9	-28.71783257	-0.003108778968	1.586362123e-005	-1.493754462e-005	-1.212779352e-006	-9.226591828e-006	1.0
10	-28.71783257	-0.003108778968	1.586362123e-005	-1.493754462e-005	-1.212779352e-006	-9.226591828e-006	1.0
[RightHandMiddle1]
9	-108.926857	1.063597441	-10.86116219	0.0001868384716	-0.02282170579	-6.721623898	1.0
10	-108.926857	1.063597441	-10.86116219	0.0001868384716	-0.02282170579	-6.721355438	1.0
[RightHandMiddle2]
9	-50.48861694	0.001339651179	2.375374788e-005	0.0001642687275	-0.02267166972	-6.728199959	1.0
10	-50.48862457	0.001339651179	2.375374788e-005	0.0001642687275	-0.02267166972	-6.727977276	1.0
[RightHandMiddle3]
9	-33.42213821	-0.003332593944	2.302100074e-005	0.0001218870966	-0.02221112698	-6.721726418	1.0
10	-33.42213821	-0.003332593944	2.302100074e-005	0.0001218870966	-0.02229943126	-6.723112106	1.0
[RightHandMiddle4]
9	-30.04623222	0.0008122664876	-2.058851123e-006	-4.330730917e-006	-9.398199836e-006	-1.902218719e-005	1.0
10	-30.04623222	0.0008122664876	-2.058851123e-006	-4.330730917e-006	-9.398199836e-006	-1.902218719e-005	1.0
[RightHandRing1]
9	-109.0496521	2.691039085	12.8736124	0.0002581341541	-0.02268882282	-6.721230507	1.0
10	-109.0496521	2.691027641	12.87363052	0.0002581341541	-0.02268882282	-6.721407413	1.0
[RightHandRing2]
9	-46.28044891	-0.4511820972	0.0489500016	4.356070713e-005	-0.02444208972	-6.721135139	1.0
10	-46.28044891	-0.4511820972	0.0489500016	4.356070713e-005	-0.02444208972	-6.721150875	1.0
[RightHandRing3]
9	-29.5250988	0.450481236	-0.04895903543	-1.179998094e-006	-0.0241094809	-6.72297287	1.0
10	-29.5250988	0.450481236	-0.04895903543	-1.179998094e-006	-0.02420023456	-6.7221632	1.0
[RightHandRing4]
9	-29.06622696	-0.00589569658	5.62874302e-005	-1.158445912e-006	1.577024705e-006	1.358736426e-005	1.0
10	-29.06622696	-0.00589569658	5.62874302e-005	-1.158445912e-006	1.577024705e-006	1.358736426e-005	1.0
[RightHandPinky1]
9	-104.5424271	10.74950981	37.43112946	0.0002575968974	-0.02530636452	-6.722107887	1.0
10	-104.5424042	10.74950981	37.43112946	0.0002575968974	-0.02530636452	-6.721888542	1.0
[RightHandPinky2]
9	-32.66366577	0.005259893369	6.039916479e-005	0.0001512434828	-0.02507209964	-6.735889435	1.0
10	-32.66366577	0.005259893369	6.039916479e-005	0.0001512434828	-0.02507209964	-6.736397743	1.0
[RightHandPinky3]
9	-25.58576202	-0.002923991065	8.959700062e-005	3.33084572e-005	-0.02475331537	-6.722349167	1.0
10	-25.58576202	-0.002923991065	8.959700062e-005	3.33084572e-005	-0.02461444214	-6.721979141	1.0
[RightHandPinky4]
9	-24.98819351	-0.004918924067	-6.33814343e-005	-2.06377299e-005	-7.119901824e-008	-3.390224492e-006	1.0
10	-24.98819351	-0.004918924067	-6.33814343e-005	-2.06377299e-005	-7.119901824e-008	-3.390224492e-006	1.0
[RH_WP]
9	-90.81784058	44.75069046	-9.102725983	-0.1271575838	-2.744757175	2.677313566	1.0
10	-90.81784058	44.75069046	-9.102725983	-0.1271575838	-2.744757175	2.677313566	1.0
[RightForeArmRoll]
9	-107.0118866	-0.003058596514	1.442765006e-005	-2.273145199	0	0	1.0
10	-107.0118866	-0.003058596514	1.442765006e-005	-2.18470192	0	0	1.0
[RightArmRoll]
9	-132.8954315	0.0004975197371	4.460558557e-005	1.717358629e-007	1.008304844e-005	-1.684297445e-006	1.0
10	-132.8953247	0.0004975197371	4.460558557e-005	1.717358629e-007	1.008304844e-005	-1.684297445e-006	1.0
[Neck]
9	269.5578613	8.048624295e-005	-1.028017687e-005	0.5921405554	-0.6271798015	-1.648361564	1.0
10	269.5563965	8.048624295e-005	-1.028017687e-005	0.590464294	-0.2926410139	-1.495370626	1.0
[Neck1]
9	55.64788055	-2.300738197e-005	-1.174621275e-006	0.5189093947	-0.7154488564	-1.638991594	1.0
10	55.64777374	-2.300738197e-005	-1.174621275e-006	0.5554301739	-0.3817744553	-1.490812302	1.0
[Head]
9	48.27833176	8.255112334e-006	4.355305009e-006	3.201653719	2.550195217	12.26243782	1.0
10	48.27820587	8.255112334e-006	4.355305009e-006	3.370983124	2.568356037	12.25224113	1.0
[Jaw]
9	16.62527084	-28.49801064	-6.624434263e-007	0	0	0	1.0
10	16.62527084	-28.49801064	-6.624434263e-007	0	0	0	1.0
[L_Eye]
9	62.91468811	-92.7388916	-39.95373535	0	0	0	1.0
10	62.91468811	-92.7388916	-39.95373535	0	0	0	1.0
[R_Eye_Socket]
9	62.91468811	-92.7388916	39.94999695	0	0	0	1.0
10	62.91468811	-92.7388916	39.94999695	0	0	0	1.0
[L_Eye_Socket]
9	62.91468811	-92.7388916	-39.95373535	0	0	0	1.0
10	62.91468811	-92.7388916	-39.95373535	0	0	0	1.0
[R_Eye]
9	62.91468811	-92.7388916	39.94999695	0	0	0	1.0
10	62.91468811	-92.7388916	39.94999695	0	0	0	1.0
[BK_WEP1]
9	159.8800049	132.8500061	-1.533420634e-012	0	0	0	1.0
10	159.8800049	132.8500061	-1.533420634e-012	0	0	0	1.0
[RightUpLeg]
9	-47.72180176	-9.041702271	88.56556702	-9.63001442	-4.67428112	26.27427292	1.0
10	-47.72180176	-9.041702271	88.5655899	-8.229610443	-6.643758297	29.15988541	1.0
[RightLeg]
9	-428.6571045	-2.972567199e-005	0.0005053556524	-4.669628143	-3.335756302	-0.5971063375	1.0
10	-428.6572266	-2.972567199e-005	0.0005053556524	-5.455423832	-4.062553406	-10.94278431	1.0
[RightFoot]
9	-444.4232788	0.009803035296	0.6373545527	6.854338646	7.838859558	-12.38981247	1.0
10	-444.4228516	0.009765745141	0.7852357626	5.453070164	8.123167038	-13.37464523	1.0
[RightToeBase]
9	-155.2786102	-0.0001600361575	-2.343192318e-005	0.002531892853	-0.0007467098185	-0.0006166516105	1.0
10	-155.2787781	-0.0001683019218	-2.343192318e-005	0.002028360963	-0.0008030805038	-0.0004548592842	1.0
[RightToeEnd]
9	-87.17578125	-5.002963007e-005	-0.0004951364244	0	0	0	1.0
10	-87.17578125	-5.002963007e-005	-0.0004951364244	0	0	0	1.0
[RightLegRoll]
9	-198.5741882	4.379046004e-005	-0.0004733095993	-3.078274488	0.1488438845	-0.0022537529	1.0
10	-198.5742798	4.379046004e-005	-0.0004733095993	-3.816494465	0.1833109856	-0.0022537529	1.0
[RightUpLegRoll]
9	-166.7198181	-8.367464761e-005	-3.297553485e-005	4.602033187e-006	1.224814127e-006	6.588880751e-006	1.0
10	-166.7198792	-8.367464761e-005	-3.297553485e-005	4.602033187e-006	1.224814127e-006	6.588880751e-006	1.0
[EndOfFile]
